<svg width="500" height="500" viewBox="0 0 500 500" fill="none" xmlns="http://www.w3.org/2000/svg">
<path d="M40.1 453.461C174.57 452.851 325.43 452.841 459.9 453.461C325.43 454.081 174.57 454.071 40.1 453.461Z" fill="#263238"/>
<path d="M278.71 453.37C281.23 454.24 353.61 454.79 356.38 453.06C357.43 452.41 358.13 441.88 358.61 429.12C358.71 426.37 358.8 423.53 358.88 420.64L362.21 382.03L313.83 381.52L311.83 420.11L311.98 428.61C311.98 428.61 284.17 440.79 281.34 443.01C278.51 445.23 276.19 452.51 278.71 453.37Z" fill="#AD6359"/>
<path d="M278.71 453.37C281.23 454.24 353.61 454.79 356.38 453.06C357.66 452.27 358.38 436.88 358.88 420.64L311.8 420.14L311.95 428.64C311.95 428.64 284.14 440.82 281.31 443.04C278.48 445.26 276.19 452.51 278.71 453.37Z" fill="white"/>
<path d="M278.71 453.37C281.23 454.24 353.61 454.79 356.38 453.06C357.43 452.41 358.13 441.88 358.61 429.12L312 428.64C312 428.64 284.19 440.82 281.36 443.04C278.53 445.26 276.19 452.51 278.71 453.37Z" fill="#263238"/>
<path d="M279.77 450.49C291.91 450.28 340.87 450.59 352.88 451.31C352.97 451.31 352.97 451.38 352.88 451.39C340.88 451.86 291.88 451.14 279.77 450.68C279.51 450.67 279.52 450.49 279.77 450.49Z" fill="#FFC727"/>
<path d="M307.23 429.81C312.09 429.81 317.71 431.53 320.69 435.53C320.81 435.68 320.59 435.84 320.44 435.77C316.213 433.507 311.753 431.707 307.14 430.4C307.068 430.381 307.006 430.336 306.965 430.274C306.924 430.212 306.908 430.137 306.919 430.064C306.93 429.991 306.968 429.924 307.026 429.877C307.083 429.83 307.156 429.806 307.23 429.81Z" fill="#FFC727"/>
<path d="M303.47 431.24C308.33 431.24 313.95 432.97 316.93 436.96C317.05 437.11 316.83 437.28 316.68 437.2C312.453 434.946 307.998 433.149 303.39 431.84C303.324 431.815 303.268 431.769 303.231 431.709C303.195 431.648 303.18 431.577 303.189 431.507C303.199 431.438 303.231 431.373 303.283 431.324C303.334 431.275 303.4 431.246 303.47 431.24Z" fill="#FFC727"/>
<path d="M299.71 432.67C304.57 432.67 310.19 434.4 313.17 438.39C313.29 438.55 313.07 438.71 312.92 438.63C308.693 436.376 304.238 434.579 299.63 433.27C299.564 433.245 299.508 433.199 299.471 433.139C299.435 433.078 299.42 433.007 299.429 432.937C299.439 432.867 299.471 432.803 299.523 432.754C299.574 432.705 299.64 432.676 299.71 432.67Z" fill="#FFC727"/>
<path d="M428.36 205.17C428.36 205.17 370.85 304.47 369.76 311.26C368.08 321.7 362.13 418.62 362.13 418.62L310.07 417.43C310.07 417.43 315.53 335.95 323.24 305.84C328.79 284.15 373.94 210.57 373.94 210.57L428.36 205.17Z" fill="#37474F"/>
<path d="M313.58 407.48C321.53 407.48 349.7 407.48 360.27 408.63C360.35 408.63 360.34 408.78 360.27 408.79C356.63 409.31 321.53 408.07 313.58 407.71C313.555 407.702 313.534 407.687 313.518 407.666C313.503 407.646 313.494 407.62 313.494 407.595C313.494 407.569 313.503 407.544 313.518 407.523C313.534 407.502 313.555 407.487 313.58 407.48Z" fill="#263238"/>
<path d="M353.7 403.48C355.89 373.05 358.05 337.32 361.07 307.07C368.99 290.35 378.58 274.48 387.51 258.29C393.72 247.29 406.42 225.29 412.79 214.38L388.19 258.67C380.03 273.45 371.71 288.17 363.97 303.15C363.12 305.04 361.87 306.72 361.76 308.84C359.11 338.51 356.38 373.75 353.7 403.48Z" fill="#263238"/>
<path d="M384.49 454.23C387.16 454.23 457.67 430.94 459.76 428.43C459.852 428.275 459.9 428.099 459.9 427.92C460.04 425.56 455.83 416.98 452.57 405.92C452.36 405.21 450.8 401.87 448.63 397.37C442.63 385 432.03 363.79 432.03 363.79L386 378.63L405.37 412.21L408.2 420.21C408.2 420.21 385.7 440.59 383.71 443.59C381.72 446.59 381.83 454.21 384.49 454.23Z" fill="#AD6359"/>
<path d="M384.49 454.23C387.16 454.23 457.67 430.94 459.76 428.43C459.852 428.275 459.9 428.099 459.9 427.92C460.04 425.56 455.83 416.98 452.57 405.92C452.36 405.21 450.8 401.87 448.63 397.37L405.34 412.25L408.17 420.25C408.17 420.25 385.67 440.63 383.68 443.63C381.69 446.63 381.83 454.21 384.49 454.23Z" fill="white"/>
<path d="M384.5 454.22C387.16 454.22 457.67 430.94 459.76 428.42C460.55 427.47 458.1 417.89 452.57 405.88L408.17 420.22C408.17 420.22 385.67 440.6 383.68 443.6C381.69 446.6 381.83 454.2 384.5 454.22Z" fill="#263238"/>
<path d="M384.59 451.15C396.03 447.1 442.59 431.87 454.18 428.74C454.27 428.74 454.29 428.74 454.18 428.81C443 433.03 396.3 447.93 384.65 451.34C384.4 451.41 384.35 451.24 384.59 451.15Z" fill="#FFC727"/>
<path d="M404.07 422.83C408.66 421.26 414.55 421.14 418.65 423.98C418.81 424.09 418.65 424.31 418.49 424.29C413.761 423.49 408.961 423.199 404.17 423.42C404.095 423.427 404.019 423.405 403.959 423.359C403.899 423.313 403.858 423.246 403.846 423.171C403.833 423.096 403.849 423.02 403.891 422.956C403.932 422.893 403.996 422.848 404.07 422.83Z" fill="#FFC727"/>
<path d="M401 425.38C405.59 423.81 411.48 423.69 415.58 426.53C415.74 426.64 415.58 426.87 415.42 426.84C410.691 426.04 405.891 425.749 401.1 425.97C401.025 425.977 400.949 425.955 400.889 425.909C400.829 425.863 400.788 425.796 400.776 425.721C400.763 425.646 400.779 425.57 400.821 425.506C400.862 425.443 400.926 425.398 401 425.38Z" fill="#FFC727"/>
<path d="M397.85 427.93C402.44 426.36 408.33 426.24 412.43 429.08C412.59 429.19 412.43 429.42 412.27 429.39C407.558 428.592 402.774 428.304 398 428.53C397.923 428.543 397.843 428.527 397.778 428.484C397.712 428.442 397.665 428.376 397.645 428.299C397.626 428.223 397.637 428.143 397.675 428.074C397.713 428.006 397.776 427.954 397.85 427.93Z" fill="#FFC727"/>
<path d="M397.76 409.97L447.42 392.13C447.42 392.13 409.27 308.77 409.26 301.93C409.26 295.86 440.56 240.98 441.96 230.93C444.26 214.49 435.45 200.46 427.23 191.93L373.94 210.55C373.94 210.55 378.84 219.66 387.13 225.1C387.13 225.1 356.56 284.1 356.83 302.87C357.1 321.64 397.76 409.97 397.76 409.97Z" fill="#37474F"/>
<path d="M395.75 399.18C403.22 396.53 401.04 397.18 408.54 394.62C412.21 393.37 436.34 385.15 439.97 384.62C440.05 384.62 440.09 384.74 439.97 384.78C436.72 386.48 412.45 394.28 408.76 395.46C401.21 397.88 403.35 397.1 395.76 399.46C395.723 399.461 395.687 399.447 395.66 399.422C395.632 399.397 395.616 399.362 395.615 399.325C395.614 399.287 395.627 399.251 395.653 399.224C395.678 399.197 395.713 399.181 395.75 399.18Z" fill="#263238"/>
<path d="M378.68 223.45C383.992 225.057 389.158 227.114 394.12 229.6C394.145 229.604 394.169 229.613 394.19 229.627C394.211 229.642 394.228 229.661 394.241 229.683C394.253 229.705 394.261 229.729 394.263 229.754C394.265 229.78 394.261 229.805 394.252 229.829C394.243 229.852 394.228 229.874 394.21 229.891C394.191 229.909 394.169 229.922 394.145 229.929C394.121 229.937 394.095 229.939 394.07 229.936C394.045 229.932 394.021 229.923 394 229.91C388.8 228.02 383.51 226.22 378.42 224.05C378.352 224.008 378.301 223.944 378.277 223.868C378.252 223.792 378.256 223.709 378.288 223.636C378.32 223.563 378.377 223.504 378.449 223.469C378.521 223.435 378.603 223.428 378.68 223.45Z" fill="#263238"/>
<path d="M385 221.72C385.452 222.644 385.836 223.6 386.15 224.58C386.478 225.331 386.658 226.14 386.68 226.96C386.68 227.11 386.46 227.13 386.37 227.03C385.862 226.337 385.471 225.567 385.21 224.75C384.82 223.87 384.42 222.99 384.06 222.1C383.78 221.5 384.69 221.15 385 221.72Z" fill="#263238"/>
<path d="M384.66 216.8C384.39 215.98 384.12 215.17 383.84 214.35C383.56 213.53 383.2 212.68 382.97 211.82C382.97 211.68 382.72 211.76 382.76 211.9C383.03 212.72 383.18 213.58 383.38 214.42C383.58 215.26 383.79 216.1 384.01 216.94C384.42 218.5 384.94 220.05 385.5 221.57C384.646 221.554 383.805 221.35 383.04 220.97C382.281 220.413 381.714 219.634 381.42 218.74C381.02 217.82 380.66 216.88 380.25 215.97C379.744 214.973 379.328 213.932 379.01 212.86C379.01 212.73 378.76 212.8 378.8 212.94C379.359 215.202 380.143 217.403 381.14 219.51C381.57 220.34 381.9 221.19 382.76 221.56C383.704 221.884 384.704 222.016 385.7 221.95C385.82 221.95 385.99 221.95 385.95 221.77C385.59 220.11 385.18 218.42 384.66 216.8Z" fill="#263238"/>
<path d="M386.2 227.03C384.36 230.88 382.2 234.6 380.2 238.38C378.2 242.16 376.44 245.82 374.66 249.58C371.047 257.193 367.76 264.946 364.8 272.84C363.34 276.74 361.96 280.68 360.7 284.65C359.342 288.611 358.269 292.665 357.49 296.78C356.8 300.92 356.55 302.83 357.18 306.99C358.1 313.07 366.78 340.2 371.42 348.74C371.57 349.02 372.05 348.74 371.92 348.47C368.56 340.57 357.24 310.4 358.09 301.89C358.771 296.993 359.851 292.16 361.32 287.44C362.53 283.44 363.87 279.44 365.32 275.49C368.15 267.71 371.4 260.11 374.72 252.49C376.58 248.24 378.56 244.05 380.44 239.82C382.32 235.59 384.19 231.21 386.36 227.07C386.45 227.03 386.25 226.92 386.2 227.03Z" fill="#263238"/>
<path d="M425.19 216.66C424.19 216.55 422.79 216.98 418.52 216.95C417.339 216.923 416.163 216.806 415 216.6C413.818 216.489 412.678 216.106 411.67 215.48C410.048 214.12 408.692 212.472 407.67 210.62C406.406 208.716 405.397 206.655 404.67 204.49C404.67 204.36 404.44 204.44 404.47 204.57C404.77 205.8 404.97 207.03 405.38 208.24C405.774 209.377 406.259 210.48 406.83 211.54C407.83 213.54 409.05 215.64 410.97 216.91C412.89 218.18 415.66 218.34 417.97 218.36C419.32 218.36 424.58 217.9 425.24 217.11C425.41 216.97 425.38 216.68 425.19 216.66Z" fill="#263238"/>
<path d="M435 381.86C428.4 367.34 414.07 328.35 407.19 314.96C405.55 311.75 403.62 308.53 402.65 305.04C401.6 301.25 402.57 297.7 403.98 294.15C406.615 287.65 409.62 281.306 412.98 275.15C416.3 268.95 419.83 262.88 423.32 256.77C426.81 250.66 430.42 244.66 433.16 238.24C435.78 232.11 437.05 225.66 435.79 219.03C434.53 212.4 431.28 206.43 427.84 200.76C426.94 199.27 426.01 197.76 425.1 196.3C425.03 196.18 424.86 196.3 424.93 196.42C428.74 202.33 432.42 208.57 434.44 215.36C435.473 218.712 435.946 222.213 435.84 225.72C435.607 229.261 434.806 232.742 433.47 236.03C431 242.47 427.39 248.48 423.99 254.45C420.59 260.42 416.99 266.63 413.6 272.8C410.165 278.986 407.058 285.348 404.29 291.86C403.08 294.77 401.74 297.8 401.6 301C401.44 304.49 402.9 307.75 404.43 310.8C411.11 324.11 433.72 380.4 434.65 382.03C434.77 382.28 435.05 382.08 435 381.86Z" fill="#263238"/>
<path d="M352.73 137.19C343.03 161.62 336.39 180.39 338.53 186.97C343.61 202.59 352.53 198.88 353.81 198.1C362.81 192.75 367.21 156.1 366.92 137.32C366.67 120.53 357.9 124.15 352.73 137.19Z" fill="#FFC727"/>
<path opacity="0.1" d="M348.66 198.94C350.422 199.223 352.229 198.929 353.81 198.1C362.81 192.75 367.21 156.1 366.92 137.32C366.82 130.55 365.34 127.1 363.26 126.25L348.66 198.94Z" fill="black"/>
<path d="M434.9 198.53C434.8 198.76 365.46 223.89 364.59 223.42C363.39 222.76 353.35 150.36 359.07 131.89C360.5 127.27 369.24 121.46 374.52 123.89C389.83 130.81 395.38 139.13 400.94 145.57C405.07 150.35 411 158.87 416.74 167.72C426.23 182.26 435.22 197.7 434.9 198.53Z" fill="#FFC727"/>
<path d="M376.3 140.26C374.89 154.6 375.55 171.4 375.01 190.88C374.4 212.62 375.54 234.17 375.5 238.88C375.45 244.88 405.5 231.88 404.92 227.82C404.55 225.2 402.24 205.12 400.1 186.82C397.96 168.52 392.04 149.87 388.56 137.82C384.54 123.82 377.33 129.69 376.3 140.26Z" fill="#AD6359"/>
<path d="M375.26 229.22C375.26 229.22 375.11 231.35 375.26 241.76C375.38 248.96 380.26 266.42 399.26 273.48C406.53 276.19 411.6 272.28 404.55 268.12C399.55 265.2 395.9 263.6 394.55 262.19C394.55 262.19 403.28 260.96 405.63 256.42C407.685 252.454 409.452 248.347 410.92 244.13C410.208 243.685 409.47 243.285 408.71 242.93C408.71 242.93 409.71 233.25 404.94 227.79L375.26 229.22Z" fill="#AD6359"/>
<path d="M376.49 248.61C379.02 251.42 384.49 257.26 390.6 260.49C397.41 264.08 411.48 269.16 414.08 264.11C415.98 260.41 410.78 258 410.78 258C410.78 258 417.04 258.87 418.03 255.15C418.93 251.76 414.79 250.15 414.79 250.15C414.79 250.15 418.68 250.03 418.92 246.6C419.21 242.46 411.01 243.4 407.69 238.97C406.94 237.95 376.49 248.61 376.49 248.61Z" fill="#AD6359"/>
<path d="M393.19 252.67C398.323 256.21 404.414 258.101 410.65 258.09C410.81 258.09 410.88 257.96 410.74 257.93C404.709 256.875 398.829 255.089 393.23 252.61C393.23 252.61 393.16 252.65 393.19 252.67Z" fill="#263238"/>
<path d="M397 245.91C399.62 247.6 407.7 250.81 414.74 250.27C414.9 250.27 414.97 250.13 414.82 250.11C408.747 249.365 402.779 247.932 397.03 245.84C397.03 245.84 397 245.89 397 245.91Z" fill="#263238"/>
<path d="M372.92 229.32L407.72 225.23C407.72 225.23 403.72 192.13 402.02 180.86C400.32 169.59 391.66 143.73 388.02 134.52C384.38 125.31 377.95 128.06 376.02 138.63C374.09 149.2 374.58 184.52 374.35 185.63C374.12 186.74 372.92 229.32 372.92 229.32Z" fill="#FFC727"/>
<path d="M389.91 220.58C387.6 220.83 385.29 221.03 382.98 221.24C381.87 221.33 380.76 221.44 379.65 221.5C378.54 221.56 377.23 221.73 376.03 221.71C376.017 221.704 376.006 221.695 375.998 221.684C375.99 221.672 375.986 221.659 375.986 221.645C375.986 221.631 375.99 221.617 375.998 221.605C376.006 221.594 376.017 221.585 376.03 221.58C377.2 221.3 378.43 221.2 379.61 221.01C380.79 220.82 381.82 220.7 382.92 220.55C385.22 220.25 387.52 219.95 389.83 219.71C394.45 219.22 399.07 218.86 403.71 218.55C403.734 218.55 403.757 218.559 403.774 218.576C403.791 218.593 403.8 218.616 403.8 218.64C403.8 218.663 403.791 218.686 403.774 218.703C403.757 218.72 403.734 218.73 403.71 218.73C399.12 219.42 394.53 220.03 389.91 220.58Z" fill="#263238"/>
<path d="M407.55 223.83C406.91 216.04 403.09 182.5 401.03 173.27C398.608 164.117 395.687 155.103 392.28 146.27C394.57 154.32 398.28 165.5 400.28 173.48C402.43 182.7 407.55 223.83 407.55 223.83Z" fill="#263238"/>
<path d="M396 157.16C396.104 154.827 395.845 152.492 395.23 150.24C395.13 152.572 395.389 154.906 396 157.16Z" fill="#263238"/>
<path d="M373.11 222.76C373.91 215.13 374.83 193.76 374.77 184.49C374.77 175.37 374.77 155.85 374.84 154.49C374.41 162.74 374.03 176.42 373.98 184.57C373.93 193.85 373.11 222.76 373.11 222.76Z" fill="#263238"/>
<path d="M373.54 157.59C374.034 159.671 374.395 161.782 374.62 163.91C373.725 161.93 373.354 159.754 373.54 157.59Z" fill="#263238"/>
<path d="M365.64 142.44C365.64 142.44 374.5 129.7 381.64 128.6L388.64 132.77C388.64 132.77 390.73 133.04 391.1 131.68C392.02 128.31 390.89 120.8 383.56 117.18C376.84 113.87 364.96 117.08 357.34 120.73C350.03 124.23 346.65 129.57 349.97 134.15C353.29 138.73 365.64 142.44 365.64 142.44Z" fill="#FFC727"/>
<path opacity="0.1" d="M364.42 140.23C364.42 140.23 354.42 135.61 352.75 132.04C351.08 128.47 357.93 123.46 362.5 121.14C369.57 117.54 374.76 117.05 379.72 120.24C384.68 123.43 364.42 140.23 364.42 140.23Z" fill="black"/>
<path d="M366.19 140.11C369.06 139.11 372.9 131.65 373.49 126.33C373.49 125.97 371.78 123.02 369.83 119.33C368.65 117.09 367.4 114.58 366.41 112.19L353 122.03C355.08 124.656 356.83 127.527 358.21 130.58C358.343 130.902 358.443 131.237 358.51 131.58C358.502 131.636 358.502 131.693 358.51 131.75C359 133.71 361.71 141.6 366.19 140.11Z" fill="#AD6359"/>
<path d="M360.1 131.18C359.589 131.404 359.06 131.588 358.52 131.73C358.528 131.673 358.528 131.616 358.52 131.56C358.454 131.217 358.354 130.882 358.22 130.56C356.834 127.514 355.081 124.65 353 122.03L365.47 112.95C366.42 117.03 368.08 127.68 360.1 131.18Z" fill="#263238"/>
<path d="M362.08 93.0296C365.58 97.8996 368.01 114.55 365.34 119.35C361.46 126.35 352.46 129.89 345.88 124.62C339.5 119.52 336.7 97.7596 339.94 93.1296C344.71 86.2596 356.92 85.7996 362.08 93.0296Z" fill="#AD6359"/>
<path d="M339.81 106.42C340.101 106.15 340.408 105.9 340.73 105.67C341.01 105.357 341.387 105.149 341.8 105.08C341.935 105.079 342.066 105.124 342.171 105.207C342.277 105.291 342.35 105.408 342.38 105.54C342.406 105.807 342.359 106.076 342.245 106.319C342.131 106.562 341.953 106.769 341.73 106.92C341.328 107.296 340.801 107.51 340.25 107.52C340.125 107.514 340.004 107.473 339.902 107.4C339.8 107.328 339.721 107.228 339.675 107.112C339.628 106.995 339.616 106.868 339.64 106.746C339.664 106.623 339.723 106.51 339.81 106.42Z" fill="#263238"/>
<path d="M351.49 104.18C351.109 104.068 350.722 103.981 350.33 103.92C349.934 103.785 349.505 103.785 349.11 103.92C348.99 103.982 348.895 104.083 348.839 104.207C348.783 104.33 348.769 104.468 348.8 104.6C348.899 104.849 349.064 105.068 349.277 105.231C349.49 105.395 349.743 105.498 350.01 105.53C350.537 105.688 351.105 105.641 351.6 105.4C351.722 105.343 351.824 105.251 351.891 105.135C351.958 105.019 351.988 104.884 351.976 104.751C351.964 104.617 351.91 104.49 351.823 104.388C351.736 104.286 351.62 104.213 351.49 104.18Z" fill="#263238"/>
<path d="M354.74 117.22C354.58 117.57 354.46 118.03 354.08 118.22C353.674 118.368 353.242 118.433 352.81 118.41C352.81 118.41 352.75 118.46 352.81 118.48C353.054 118.624 353.332 118.7 353.615 118.7C353.898 118.7 354.176 118.624 354.42 118.48C354.619 118.334 354.769 118.133 354.853 117.901C354.937 117.67 354.95 117.418 354.89 117.18C354.85 117.16 354.76 117.17 354.74 117.22Z" fill="#263238"/>
<path d="M351.69 115.68C350.214 115.721 348.761 116.061 347.42 116.68C347.29 116.68 346.97 116.68 346.92 116.55L346.43 114.15C346.15 114.38 344.73 115.48 344.65 115.02C343.836 111.142 343.42 107.192 343.41 103.23C343.417 103.207 343.431 103.188 343.45 103.174C343.469 103.16 343.492 103.152 343.515 103.152C343.538 103.152 343.561 103.16 343.58 103.174C343.599 103.188 343.613 103.207 343.62 103.23C344.39 106.81 344.53 110.5 345.24 114.11C345.743 113.699 346.302 113.362 346.9 113.11C347.03 113.11 347.29 115.67 347.42 116.04C348.76 115.329 350.304 115.107 351.79 115.41C352.36 115.54 352.45 115.67 351.69 115.68Z" fill="#263238"/>
<path d="M350.05 117.74C349.48 117.74 347.96 116.01 348.77 115.57C349.457 115.286 350.205 115.179 350.944 115.26C351.683 115.34 352.39 115.605 353 116.03C354.06 116.93 351.21 117.03 350.86 117.33C350.51 117.63 350.46 117.73 350.05 117.74Z" fill="#263238"/>
<path d="M350.85 117.29C350.796 117.343 350.74 117.393 350.68 117.44C350.609 117.23 350.581 117.009 350.6 116.788C350.619 116.568 350.684 116.354 350.79 116.16C350.897 115.966 351.042 115.797 351.218 115.662C351.394 115.528 351.595 115.432 351.81 115.38C352.246 115.485 352.652 115.686 353 115.97C354 116.88 351.2 116.97 350.85 117.29Z" fill="#FF9ABB"/>
<path d="M349.76 107.88C349.76 107.88 349.86 107.93 349.87 107.97C350 109.14 350.35 110.45 351.45 110.68V110.75C350.15 110.75 349.7 109.03 349.76 107.88Z" fill="#263238"/>
<path d="M349.91 109.15C350.009 109.455 350.189 109.728 350.43 109.94C350.57 110.05 350.73 110.131 350.902 110.178C351.074 110.224 351.254 110.235 351.43 110.21C351.607 110.178 351.774 110.105 351.918 109.997C352.062 109.89 352.179 109.75 352.26 109.59C352.399 109.303 352.471 108.988 352.47 108.67C352.463 108.482 352.447 108.295 352.42 108.11C352.363 107.723 352.219 107.354 352 107.03C352.059 107.306 352.089 107.587 352.09 107.87C352.089 108.127 352.072 108.384 352.04 108.64C351.96 109.15 351.74 109.64 351.34 109.64C350.94 109.64 350.57 109.43 350.34 108.96C350.101 108.47 349.914 107.957 349.78 107.43C349.688 108.005 349.732 108.594 349.91 109.15Z" fill="#263238"/>
<path d="M343.07 108.91C343.07 108.91 342.99 108.98 343 109.03C343.27 110.17 343.38 111.52 342.42 112.11C342.42 112.11 342.42 112.19 342.42 112.17C343.67 111.74 343.5 109.95 343.07 108.91Z" fill="#263238"/>
<path d="M343.35 110.15C343.361 110.47 343.285 110.788 343.13 111.07C343.035 111.219 342.91 111.349 342.764 111.45C342.618 111.551 342.454 111.622 342.28 111.66C342.102 111.688 341.919 111.676 341.746 111.624C341.573 111.572 341.413 111.482 341.28 111.36C341.053 111.137 340.885 110.862 340.79 110.56C340.726 110.384 340.676 110.203 340.64 110.02C340.55 109.638 340.55 109.241 340.64 108.86C340.681 109.139 340.748 109.413 340.84 109.68C340.925 109.921 341.029 110.155 341.15 110.38C341.39 110.84 341.76 111.2 342.15 111.1C342.54 111 342.81 110.64 342.88 110.1C342.935 109.558 342.935 109.012 342.88 108.47C343.168 108.984 343.329 109.56 343.35 110.15Z" fill="#263238"/>
<path d="M338.66 100.03C338.88 98.4796 339.19 96.8896 339.95 96.3796C340.71 95.8696 341.82 98.3796 343.76 97.9896C346.38 97.4696 347.12 93.9896 350.76 93.1996C355.28 92.1996 358.46 94.8596 360.59 102.2C362.48 108.71 366.47 108.55 366.47 108.55C366.47 108.55 365.61 93.1496 360.24 89.4796C354.87 85.8096 345 86.1596 340 92.4296C338.11 94.7196 338.66 100.03 338.66 100.03Z" fill="#263238"/>
<path d="M363.06 106.9C363.06 106.9 365.01 100.67 367.73 101.21C370.45 101.75 370.1 110 367.73 111.87C367.439 112.131 367.099 112.331 366.728 112.457C366.358 112.583 365.966 112.632 365.577 112.602C365.187 112.572 364.807 112.464 364.46 112.283C364.114 112.102 363.807 111.852 363.56 111.55L363.06 106.9Z" fill="#AD6359"/>
<path d="M367.57 103.57V103.64C365.91 105.02 365.46 107.1 365.34 109.16C365.389 108.933 365.486 108.72 365.626 108.535C365.766 108.35 365.945 108.198 366.15 108.089C366.354 107.98 366.581 107.918 366.812 107.906C367.044 107.894 367.275 107.933 367.49 108.02C367.55 108.02 367.49 108.13 367.49 108.14C367.122 108.137 366.763 108.25 366.461 108.461C366.16 108.673 365.933 108.973 365.81 109.32C365.6 109.901 365.459 110.505 365.39 111.12C365.39 111.32 365.02 111.32 365.02 111.12C364.22 108.64 365 104.64 367.57 103.57Z" fill="#263238"/>
<path d="M343.54 89.4396C345.236 87.8325 347.16 86.4846 349.25 85.4396C351.6 84.3096 359.55 82.3096 361.93 83.2396C364.31 84.1696 367.24 91.3096 367.64 92.3596C368.04 93.4096 369.73 100.03 367.92 102.36C366.11 104.69 362.21 93.8096 357.3 91.3596C352.39 88.9096 343.54 89.4396 343.54 89.4396Z" fill="#FFC727"/>
<path opacity="0.1" d="M343.53 89.4496C343.53 89.4496 352.39 88.9996 357.3 91.4496C362.21 93.8996 366.1 104.74 367.92 102.45C368.72 101.45 368.92 100.23 368.73 98.3696C367.17 95.3696 364.21 90.7996 360.38 88.2496C356.8 85.8596 351.95 85.6696 347.17 86.6896C345.88 87.5036 344.662 88.427 343.53 89.4496Z" fill="black"/>
<path d="M369.46 109.08C368.27 106.23 362.68 99.3996 358.06 95.9596C353.44 92.5196 343.41 92.9596 342.15 93.4696C339.15 94.6896 338.91 96.4096 338.33 96.2896C337.75 96.1696 339.67 91.5996 340.33 90.7896C341.44 89.6675 342.786 88.8066 344.27 88.2696C345.63 87.8496 354.27 85.8896 358.47 88.4296C362.67 90.9696 370.31 99.4996 370.38 102.31C370.38 102.99 369.71 103.66 369.74 104.61C369.79 105.86 369.99 107.26 369.91 108.17C369.89 108.91 369.56 109.33 369.46 109.08Z" fill="#FFC727"/>
<path d="M356.67 94.1896C357.238 93.5124 357.75 92.79 358.2 92.0296C358.664 91.266 359.037 90.4504 359.31 89.5996C359.31 89.5863 359.315 89.5736 359.325 89.5642C359.334 89.5548 359.347 89.5496 359.36 89.5496C359.373 89.5496 359.386 89.5548 359.395 89.5642C359.405 89.5736 359.41 89.5863 359.41 89.5996C359.255 90.507 358.958 91.3844 358.53 92.1996C358.086 92.9991 357.496 93.708 356.79 94.2896C356.71 94.3796 356.61 94.2596 356.67 94.1896Z" fill="#263238"/>
<path d="M368.51 106.15C368.51 105.92 368.6 105.68 368.63 105.45C368.66 105.177 368.66 104.902 368.63 104.63C368.524 104.127 368.477 103.613 368.49 103.1C368.561 102.686 368.682 102.283 368.85 101.9C369.07 101.475 369.13 100.985 369.02 100.52C369.02 100.46 369.1 100.42 369.12 100.52C369.266 101.388 369.191 102.279 368.9 103.11C368.887 103.662 368.924 104.214 369.01 104.76C369.051 105.28 368.921 105.8 368.64 106.24C368.626 106.247 368.609 106.25 368.593 106.249C368.577 106.248 368.562 106.242 368.548 106.233C368.535 106.224 368.524 106.211 368.518 106.197C368.511 106.182 368.508 106.166 368.51 106.15Z" fill="#263238"/>
<path d="M366.44 103.33C366.628 102.92 366.792 102.499 366.93 102.07C367.045 101.638 367.135 101.201 367.2 100.76C367.26 100.33 367.28 99.8896 367.33 99.4596C367.38 99.0296 367.52 98.4596 367.55 97.9296C367.55 97.9163 367.555 97.9036 367.565 97.8942C367.574 97.8848 367.587 97.8796 367.6 97.8796C367.613 97.8796 367.626 97.8848 367.635 97.8942C367.645 97.9036 367.65 97.9163 367.65 97.9296C367.65 98.4696 367.65 99.0096 367.65 99.5396C367.627 100.003 367.574 100.464 367.49 100.92C367.423 101.357 367.309 101.786 367.15 102.2C367.014 102.626 366.789 103.018 366.49 103.35C366.49 103.35 366.43 103.36 366.44 103.33Z" fill="#263238"/>
<path d="M364.43 100.83C364.873 100.105 365.21 99.32 365.43 98.4996C365.63 97.6996 365.79 96.8896 365.94 96.0796C365.94 96.0196 366.04 96.0196 366.04 96.0796C366.055 96.9407 365.965 97.8005 365.77 98.6396C365.672 99.0447 365.527 99.4372 365.34 99.8096C365.111 100.198 364.839 100.561 364.53 100.89C364.53 100.89 364.39 100.89 364.43 100.83Z" fill="#263238"/>
<path d="M362.35 98.4796C362.589 98.1845 362.765 97.8444 362.87 97.4796C363.01 97.0696 363.14 96.6496 363.26 96.2296C363.38 95.8096 363.51 95.4296 363.62 95.0296C363.765 94.6296 363.823 94.2036 363.79 93.7796C363.79 93.7663 363.795 93.7536 363.805 93.7442C363.814 93.7348 363.827 93.7296 363.84 93.7296C363.853 93.7296 363.866 93.7348 363.875 93.7442C363.885 93.7536 363.89 93.7663 363.89 93.7796C363.97 94.1924 363.97 94.6167 363.89 95.0296C363.837 95.4936 363.743 95.952 363.61 96.3996C363.479 96.8384 363.322 97.2691 363.14 97.6896C363.002 98.0881 362.747 98.4363 362.41 98.6896C362.382 98.6975 362.352 98.6941 362.327 98.68C362.302 98.666 362.283 98.6424 362.275 98.6146C362.267 98.5867 362.27 98.5568 362.285 98.5315C362.299 98.5062 362.322 98.4875 362.35 98.4796Z" fill="#263238"/>
<path d="M360.36 95.2896C360.54 94.9396 360.72 94.5795 360.87 94.2095C361.02 93.8395 361.16 93.4695 361.29 93.0895C361.42 92.7095 361.57 92.2996 361.68 91.8996C361.68 91.8863 361.685 91.8736 361.695 91.8642C361.704 91.8548 361.717 91.8495 361.73 91.8495C361.743 91.8495 361.756 91.8548 361.765 91.8642C361.775 91.8736 361.78 91.8863 361.78 91.8996C361.75 92.3167 361.69 92.7311 361.6 93.1395C361.391 93.9386 361.082 94.708 360.68 95.4296C360.507 95.8065 360.263 96.1462 359.96 96.4296C359.949 96.4379 359.935 96.4425 359.921 96.443C359.907 96.4435 359.893 96.4397 359.881 96.4321C359.869 96.4245 359.86 96.4136 359.854 96.4006C359.849 96.3877 359.847 96.3734 359.85 96.3596C359.981 95.9856 360.152 95.6269 360.36 95.2896Z" fill="#263238"/>
<path d="M353.88 93.2796C354.035 92.8232 354.215 92.3758 354.42 91.9396C354.634 91.4925 354.875 91.0584 355.14 90.6396C355.64 89.8167 356.231 89.052 356.9 88.3596C356.9 88.3596 357.01 88.3596 356.98 88.3596C355.98 90.0096 354.98 91.6096 353.98 93.2696L353.88 93.2796Z" fill="#263238"/>
<path d="M351.27 91.3696C351.447 90.9181 351.675 90.4886 351.95 90.0896C352.534 89.2763 353.205 88.5286 353.95 87.8596C353.95 87.8596 354.07 87.8596 354.03 87.9296C353.44 88.6896 352.83 89.4296 352.29 90.2196C352.016 90.6094 351.762 91.0133 351.53 91.4296C351.31 91.8496 351.18 92.2996 350.97 92.7296H350.9C350.934 92.2566 351.06 91.7947 351.27 91.3696Z" fill="#263238"/>
<path d="M348.46 91.0296C348.615 90.5928 348.816 90.1738 349.06 89.7796C349.514 89.0216 350.092 88.3454 350.77 87.7796C350.82 87.7796 350.88 87.7796 350.84 87.8596C350.268 88.5349 349.759 89.2613 349.32 90.0296C349.09 90.4096 348.89 90.7996 348.68 91.1796C348.505 91.5868 348.309 91.9841 348.09 92.3696C348.09 92.3696 348.03 92.3696 348.03 92.3696C348.13 91.9102 348.274 91.4614 348.46 91.0296Z" fill="#263238"/>
<path d="M346.21 90.1696C346.43 89.8096 346.68 89.4796 346.92 89.1696C347.142 88.8235 347.419 88.5161 347.74 88.2596C347.79 88.2596 347.84 88.2596 347.81 88.3296C347.37 89.0096 346.95 89.6896 346.52 90.3296C346.172 90.9887 345.894 91.6825 345.69 92.3996C345.69 92.3996 345.63 92.3996 345.63 92.3996C345.594 91.6147 345.796 90.8373 346.21 90.1696Z" fill="#263238"/>
<path d="M343.86 90.4296C344.251 89.7146 344.773 89.08 345.4 88.5596C345.45 88.5596 345.51 88.5596 345.47 88.6396C344.938 89.2108 344.493 89.8578 344.15 90.5596C343.793 91.2625 343.518 92.004 343.33 92.7696C343.33 92.7696 343.25 92.7696 343.25 92.7696C343.27 91.9529 343.478 91.1519 343.86 90.4296Z" fill="#263238"/>
<path d="M341.42 92.6996C341.442 92.5202 341.479 92.343 341.53 92.1696C341.617 91.8225 341.745 91.4868 341.91 91.1696C342.257 90.5194 342.669 89.9062 343.14 89.3396C343.14 89.3396 343.26 89.3396 343.22 89.3996C342.776 89.9654 342.404 90.5833 342.11 91.2396C341.961 91.5627 341.837 91.8971 341.74 92.2396C341.691 92.4038 341.651 92.5708 341.62 92.7396C341.602 92.909 341.569 93.0763 341.52 93.2396C341.52 93.2528 341.515 93.2655 341.505 93.2749C341.496 93.2843 341.483 93.2896 341.47 93.2896C341.457 93.2896 341.444 93.2843 341.435 93.2749C341.425 93.2655 341.42 93.2528 341.42 93.2396C341.391 93.0607 341.391 92.8784 341.42 92.6996Z" fill="#263238"/>
<path d="M339.72 93.4496C339.806 93.162 339.913 92.8812 340.04 92.6096C340.159 92.3373 340.296 92.0733 340.45 91.8196C340.61 91.5596 340.78 91.3096 340.92 91.0396C340.928 91.0276 340.94 91.0193 340.954 91.0165C340.969 91.0137 340.983 91.0166 340.995 91.0246C341.007 91.0325 341.015 91.0449 341.018 91.0589C341.021 91.073 341.018 91.0876 341.01 91.0996C340.844 91.359 340.704 91.6336 340.59 91.9196L340.25 92.7096C340.14 92.9796 340.02 93.2396 339.91 93.5096C339.817 93.786 339.706 94.0565 339.58 94.3196C339.58 94.3196 339.49 94.3196 339.5 94.3196C339.536 94.0214 339.61 93.729 339.72 93.4496Z" fill="#263238"/>
<path d="M364.42 140.23C364.42 140.23 370.33 123.77 380.96 120.23L381.61 128.6C381.61 128.6 375.1 129.86 365.61 142.44L364.42 140.23Z" fill="#FFC727"/>
<path d="M384.57 128.18C382.556 128.403 380.612 129.054 378.87 130.09C377.115 131.073 375.477 132.254 373.99 133.61C372.482 134.95 371.066 136.39 369.75 137.92L367.83 140.27L366.03 142.7L365.82 142.98L365.52 142.89C363.284 142.233 361.096 141.424 358.97 140.47C357.899 140.004 356.857 139.473 355.85 138.88C354.838 138.311 353.887 137.641 353.01 136.88C354.956 138.105 357.032 139.111 359.2 139.88C360.27 140.29 361.37 140.66 362.46 141C363.55 141.34 364.66 141.69 365.76 142L365.26 142.19L367.06 139.68C367.69 138.87 368.34 138.07 369 137.28C369.66 136.49 370.39 135.75 371.11 135.02C371.83 134.29 372.6 133.59 373.42 132.95C375 131.613 376.744 130.484 378.61 129.59C379.07 129.36 379.56 129.18 380.04 128.98C380.52 128.78 381.04 128.65 381.52 128.53C382.51 128.245 383.541 128.126 384.57 128.18Z" fill="#263238"/>
<path d="M388.61 132.77C387.358 132.231 386.146 131.606 384.98 130.9C383.807 130.208 382.681 129.44 381.61 128.6C382.862 129.139 384.074 129.764 385.24 130.47C386.414 131.16 387.539 131.928 388.61 132.77Z" fill="#263238"/>
<path d="M368.66 137.45C370.243 140.601 371.551 143.883 372.57 147.26C373.3 149.61 374.82 158.35 372.11 158.8C369.4 159.25 372.11 152.55 371.57 147.86C371.03 143.17 368.91 140.24 367.98 137.6L368.66 137.45Z" fill="#FFC727"/>
<g opacity="0.1">
<path d="M368.66 137.45C370.243 140.601 371.551 143.883 372.57 147.26C373.3 149.61 374.82 158.35 372.11 158.8C369.4 159.25 372.11 152.55 371.57 147.86C371.03 143.17 368.91 140.24 367.98 137.6L368.66 137.45Z" fill="black"/>
</g>
<path d="M360.33 139.03C359.394 142.093 358.724 145.231 358.33 148.41C358.05 150.62 358.05 158.67 360.55 158.64C363.05 158.61 359.55 153.05 359.32 148.78C359.09 144.51 360.51 141.56 360.93 139.06L360.33 139.03Z" fill="#FFC727"/>
<g opacity="0.1">
<path d="M360.33 139.03C359.394 142.093 358.724 145.231 358.33 148.41C358.05 150.62 358.05 158.67 360.55 158.64C363.05 158.61 359.55 153.05 359.32 148.78C359.09 144.51 360.51 141.56 360.93 139.06L360.33 139.03Z" fill="black"/>
</g>
<path d="M353.52 193.94C355.66 186.26 353.95 167.49 347.65 141.49C346.65 137.24 319.89 139.07 320.51 143.7C321.29 149.54 329.25 181.18 329.77 182.78C334.16 196.32 352.1 199.03 353.52 193.94Z" fill="#AD6359"/>
<path d="M322.12 148.32C322.12 148.32 317.62 138.12 316.91 132.03C316.34 125.68 317.322 119.286 319.77 113.4C322.38 107.04 333.11 93.4596 337.56 95.8696C341.56 98.0396 329.92 111.37 329.92 111.37C329.92 111.37 339.57 95.8196 343.92 99.3696C348.27 102.92 333.87 117.58 333.87 117.58C333.87 117.58 344.14 101.83 348.07 106.16C351.07 109.44 338.73 123.49 338.73 123.49C338.73 123.49 347.65 110.01 350.85 113.25C354.39 116.83 343.85 130.51 343.85 130.51C350.6 140.11 349.85 147.44 348.75 152.6C348.49 153.82 322.12 148.32 322.12 148.32Z" fill="#AD6359"/>
<path d="M326.24 116.53C327.31 114.66 328.37 112.77 329.6 111C330.83 109.23 332.13 107.51 333.51 105.87C335.274 103.682 337.287 101.709 339.51 99.9896C335.79 103.33 331.29 109.59 330.06 111.36C328.83 113.13 327.51 114.82 326.28 116.58C326.27 116.63 326.21 116.58 326.24 116.53Z" fill="#263238"/>
<path d="M332.53 121.09C334 118.76 335.37 116.4 336.94 114.09C338.51 111.78 340.18 109.84 341.89 107.7C342.03 107.54 342.07 107.7 341.95 107.84C340.32 110.04 338.95 112.2 337.39 114.42C335.83 116.64 334.1 118.81 332.59 121.08C332.56 121.16 332.51 121.12 332.53 121.09Z" fill="#263238"/>
<path d="M337.24 125.97C339.4 122.347 341.93 118.959 344.79 115.86C344.92 115.7 344.96 115.86 344.79 116.04C342.22 119.35 340.18 121.94 337.32 126.04C337.32 126.11 337.19 126.03 337.24 125.97Z" fill="#263238"/>
<path d="M343.86 130.48C346.537 126.917 348.783 123.05 350.55 118.96C351.07 117.47 351.62 115.82 351.16 114.28C351.12 114.045 351.023 113.823 350.877 113.634C350.732 113.445 350.542 113.295 350.325 113.196C350.108 113.098 349.87 113.054 349.632 113.068C349.394 113.083 349.164 113.155 348.96 113.28C346.87 114.36 345.03 116.48 343.06 117.87L344.54 115.78C345.89 113.67 349.54 108.57 347.8 106.24C345.96 104.57 343.94 106.56 342.51 107.84L340.78 109.33C342.47 106.9 344.66 104.18 344.64 101.1C344.34 98.0196 341.15 98.6596 339.31 100.1C340.208 99.2891 341.345 98.794 342.55 98.6896C347.21 99.3696 344.15 105.45 342.55 107.8L342.14 107.43C343.74 105.83 346.07 103.79 348.26 105.76C350.55 108.41 346.69 113.87 345.12 116.22L344.62 115.71C345.846 114.543 347.213 113.535 348.69 112.71C348.979 112.557 349.298 112.468 349.624 112.451C349.95 112.434 350.277 112.488 350.58 112.61C351.1 112.956 351.506 113.448 351.748 114.025C351.99 114.601 352.057 115.236 351.94 115.85C350.94 121.44 347.21 126.08 343.86 130.48Z" fill="#263238"/>
<path d="M319.52 153.56L354.16 151.74C354.16 151.74 359.67 187.94 356.1 195.24C351.95 203.69 333.65 200.46 328.35 182.38L319.52 153.56Z" fill="#FFC727"/>
<path d="M323.41 161.64C338.06 162.37 350.91 160.83 353.63 160.77C353.76 160.77 353.74 160.56 353.63 160.57C350.96 160.77 335.73 160.57 323.41 161.42C323.25 161.43 323.27 161.63 323.41 161.64Z" fill="#263238"/>
<path d="M357.25 186.31C356.94 181.79 356.66 177.31 356.3 172.76C355.94 168.21 355.46 163.76 354.91 159.27C354.6 156.79 354.16 154.5 353.79 152.03C352.48 151.93 351.71 152.03 350.12 151.95C349.92 151.95 349.93 151.47 350.12 151.47C351.86 151.47 354.43 151.1 354.45 151.22C355.24 155.68 355.75 160.51 356.24 165.01C356.73 169.51 357.08 174.09 357.24 178.64C357.34 181.2 357.35 183.75 357.29 186.31C357.32 186.35 357.25 186.35 357.25 186.31Z" fill="#263238"/>
<g opacity="0.4">
<path d="M229.68 449.29C287.29 466.13 321.89 425.97 321.89 425.97C331.69 425.79 355.01 429.56 355.01 429.56L378.69 367.38C378.69 367.38 358.78 354.69 351.59 348.02C351.59 348.02 352.48 295.02 298.27 269.26C290.799 265.785 282.89 263.342 274.76 262L287 281.44L256.08 290.75L258 321.01H251.4V329.8L232.86 335.98L235.43 352.98L203.84 343.33L198 361.87L178.23 347.95L167.92 353.6L162.16 342.22C152.2 397.71 193.72 438.78 229.68 449.29Z" fill="#FFC727"/>
</g>
<g opacity="0.4">
<path d="M229.68 449.29C287.29 466.13 321.89 425.97 321.89 425.97C331.69 425.79 355.01 429.56 355.01 429.56L378.69 367.38C378.69 367.38 358.78 354.69 351.59 348.02C351.59 348.02 352.48 295.02 298.27 269.26C290.809 265.785 282.91 263.342 274.79 262L288 299.08L276.84 304.74L288 356.43L251.89 359.08L246.57 372.08L230.57 365.3L225.42 374.24L221 368.4L194.2 397.78L162.09 342.64C152.41 397.92 193.81 438.81 229.68 449.29Z" fill="#FFC727"/>
</g>
<path d="M287.744 328.502L286.18 331.062L377.105 386.629L378.669 384.069L287.744 328.502Z" fill="white"/>
<path d="M261.787 395.102L261.251 398.054L366.094 417.107L366.63 414.155L261.787 395.102Z" fill="white"/>
<path d="M272.89 398.28C269.57 398.28 267.07 398.06 266.77 398.03L266.86 397.03C267.07 397.03 287.77 398.89 290.45 391.86C290.91 390.633 291.122 389.326 291.072 388.016C291.022 386.706 290.712 385.419 290.16 384.23C279.67 385.23 267.79 382.45 264.16 377.95C263.621 377.357 263.257 376.627 263.107 375.84C262.957 375.053 263.027 374.24 263.31 373.49C264.81 369.55 269.87 368.68 276.51 371.21C282.63 373.54 288.27 378.06 290.75 383.16C291.41 383.09 292.07 383 292.75 382.9C299.54 381.81 304.11 379.04 305.61 375.1C307.61 369.86 304.21 362.96 298.92 357.03C298.062 357.273 297.191 357.463 296.31 357.6C288.72 358.81 278.13 357.09 274.45 352.6C273.776 351.804 273.335 350.838 273.176 349.807C273.017 348.776 273.146 347.722 273.55 346.76C274.82 343.42 278.39 342.67 283.55 344.65C288.71 346.63 294.65 350.88 299.25 355.91C301.85 355.07 303.55 353.8 304.15 352.23C307.27 344.03 290.05 333.34 289.87 333.23L290.4 332.38C291.14 332.83 308.5 343.62 305.08 352.58C304.41 354.35 302.64 355.77 299.97 356.71C305.3 362.82 308.62 369.93 306.5 375.49C304.38 381.05 297.93 383.1 292.87 383.92C292.31 384.01 291.75 384.09 291.18 384.15C292.299 386.719 292.381 389.621 291.41 392.25C289.42 397.39 279.53 398.28 272.89 398.28ZM269.68 370.79C267.16 370.79 265.06 371.63 264.21 373.86C263.991 374.446 263.941 375.082 264.064 375.695C264.188 376.308 264.481 376.875 264.91 377.33C268.28 381.48 279.72 384.09 289.7 383.27C287.06 378.27 281.13 374.06 276.13 372.15C274.076 371.322 271.893 370.862 269.68 370.79ZM278.53 344.56C277.662 344.477 276.79 344.681 276.048 345.139C275.306 345.598 274.734 346.286 274.42 347.1C274.075 347.896 273.962 348.774 274.093 349.631C274.224 350.489 274.594 351.293 275.16 351.95C278.61 356.2 288.77 357.79 296.08 356.62C296.79 356.51 297.46 356.37 298.08 356.21C293.62 351.44 288.01 347.41 283.16 345.57C281.687 344.968 280.12 344.626 278.53 344.56Z" fill="white"/>
<path d="M394.935 453.744L424.615 375.857L381.752 359.523L352.072 437.41L394.935 453.744Z" fill="#DBDBDB"/>
<path d="M398.32 444.94C408.18 443.45 418.8 437.44 425.18 420.69C431.56 403.94 427.64 392.39 421.26 384.69L398.32 444.94Z" fill="#DBDBDB"/>
<path d="M398.32 444.94C401.264 444.506 404.13 443.651 406.83 442.4L423.15 387.21C422.564 386.344 421.933 385.51 421.26 384.71L398.32 444.94Z" fill="#C7C7C7"/>
<path d="M359.4 442.83L398.43 363.29L394.69 361.87L355.66 441.41L359.4 442.83Z" fill="#C7C7C7"/>
<path d="M370.71 447.14L409.74 367.6L406 366.18L366.97 445.72L370.71 447.14Z" fill="#C7C7C7"/>
<path d="M382.03 451.45L421.06 371.91L417.32 370.49L378.29 450.03L382.03 451.45Z" fill="#C7C7C7"/>
<path d="M337.26 332C334.66 332.5 330.96 319.12 316.12 303.89C309.53 297.13 284.93 289.05 286.5 281.02C288.07 272.99 310 280.69 321.27 293.08C339.36 313.08 339.65 331.54 337.26 332Z" fill="white"/>
<path d="M227.27 425.58C225.27 430.83 217.1 427.73 219.11 422.47C221.12 417.21 229.28 420.32 227.27 425.58Z" fill="white"/>
<path d="M298.45 423.27C299.55 426.98 281.38 436.01 263.64 436.45C248.91 436.82 232.47 431.58 232.87 427.71C233.27 423.84 256.23 429.99 265.98 428.88C278.28 427.47 297.28 419.31 298.45 423.27Z" fill="white"/>
<path opacity="0.4" d="M148 451.93L155.94 443.07L147.54 436.01L152.91 414.08L134.78 415.29L132.48 384.56L118.6 392.56L106.96 378.56L99.32 381.56L97.09 375.83L71.43 387.72L52.88 363.99L40.11 381.18C47.27 416.18 75.7 454.13 128.69 453.77H129.36C135.617 453.744 141.858 453.128 148 451.93Z" fill="#FFC727"/>
<path opacity="0.4" d="M148.34 451.83L185.42 405.25L150.81 391.92L154.35 386.05L144.84 384.6L145.33 368.43L132.26 368.19L117.73 337.71L76.56 364.91L67.87 357.08L40.1 381.08C47.26 416.13 75.67 454.08 128.69 453.69H129.36C135.732 453.686 142.088 453.063 148.34 451.83Z" fill="#FFC727"/>
<path d="M272 70.0393C272.006 74.8222 273.34 79.5096 275.851 83.5799C278.363 87.6503 281.955 90.944 286.227 93.0946C290.499 95.2451 295.284 96.1683 300.05 95.7613C304.815 95.3543 309.374 93.6332 313.22 90.7893L325.88 94.0193L320.61 82.2293C322.709 78.2928 323.754 73.8798 323.642 69.4199C323.53 64.96 322.265 60.605 319.97 56.779C317.676 52.953 314.429 49.7863 310.548 47.587C306.666 45.3878 302.281 44.231 297.82 44.2293C290.976 44.2372 284.415 46.9587 279.575 51.797C274.735 56.6354 272.011 63.1956 272 70.0393Z" fill="white"/>
<path d="M272 70.0393C272.43 91.6093 296.06 102.939 313.34 90.4493L326.03 93.5993L325.52 94.1993L320.22 82.4293L320.12 82.2193L320.23 81.9993C322.051 78.5904 323.074 74.8123 323.222 70.9502C323.37 67.0881 322.638 63.2429 321.083 59.7047C319.528 56.1665 317.189 53.0278 314.244 50.5255C311.298 48.0231 307.823 46.2224 304.08 45.2593C288.08 40.8893 271.93 53.5093 272.01 70.0393H272ZM272 70.0393C272.07 48.0393 297.74 35.9793 314.74 50.0393C324.13 57.6293 327.02 71.9293 321.07 82.5093V82.0893L326.3 93.8993L326.67 94.7293L325.79 94.4993L313.22 91.1393C297.09 103.389 272.22 91.8793 272.05 70.0393H272Z" fill="#263238"/>
<path d="M294.4 54.4493H300.45L300.04 76.7393H294.81L294.4 54.4493Z" fill="#FFC727"/>
<path d="M300.04 79.5293H294.81V84.7593H300.04V79.5293Z" fill="#FFC727"/>
</svg>
